{
	"asset":{
		"generator":"Khronos glTF Blender I/O v4.3.47",
		"version":"2.0"
	},
	"scene":0,
	"scenes":[
		{
			"name":"Scene",
			"nodes":[
				5,
				6
			]
		}
	],
	"nodes":[
		{
			"mesh":0,
			"name":"christmass_ball_inside_0"
		},
		{
			"children":[
				0
			],
			"name":"christmass_ball",
			"rotation":[
				-0.70710688829422,
				0,
				0,
				0.7071066498756409
			],
			"scale":[
				100,
				99.99998474121094,
				99.99998474121094
			],
			"translation":[
				0,
				0,
				-3.814697265625e-06
			]
		},
		{
			"name":"glass",
			"rotation":[
				-0.70710688829422,
				0,
				0,
				0.7071066498756409
			],
			"scale":[
				100,
				99.99998474121094,
				99.99998474121094
			],
			"translation":[
				0,
				110,
				-3.814698175119702e-06
			]
		},
		{
			"children":[
				1,
				2
			],
			"name":"RootNode",
			"translation":[
				0,
				0,
				-3.814697265625e-06
			]
		},
		{
			"children":[
				3
			],
			"name":"1ede5b84306949a9837286afc5f7cea4.fbx",
			"rotation":[
				0.70710688829422,
				0,
				0,
				0.7071066498756409
			],
			"translation":[
				0,
				-3.9704541450191755e-06,
				0
			]
		},
		{
			"children":[
				4
			],
			"name":"Sketchfab_model",
			"rotation":[
				-0.70710688829422,
				0,
				0,
				0.7071066498756409
			],
			"scale":[
				0.02475830726325512,
				0.024758310988545418,
				0.024758310988545418
			],
			"translation":[
				-0.07390666007995605,
				0.028701305389404297,
				1.5042582750320435
			]
		},
		{
			"mesh":1,
			"name":"Cube",
			"scale":[
				3.03995418548584,
				0.14803165197372437,
				2.5067574977874756
			],
			"translation":[
				-0.5437891483306885,
				5.820276260375977,
				1.2609848976135254
			]
		}
	],
	"materials":[
		{
			"doubleSided":true,
			"emissiveFactor":[
				1,
				1,
				1
			],
			"emissiveTexture":{
				"index":0
			},
			"name":"inside",
			"normalTexture":{
				"index":1
			},
			"occlusionTexture":{
				"index":2
			},
			"pbrMetallicRoughness":{
				"baseColorTexture":{
					"index":3
				},
				"metallicRoughnessTexture":{
					"index":2
				}
			}
		},
		{
			"doubleSided":true,
			"emissiveFactor":[
				1,
				1,
				1
			],
			"name":"Material.001",
			"pbrMetallicRoughness":{
				"baseColorFactor":[
					0,
					0,
					0,
					1
				]
			}
		}
	],
	"meshes":[
		{
			"name":"christmass_ball_inside_0",
			"primitives":[
				{
					"attributes":{
						"POSITION":0,
						"NORMAL":1,
						"TEXCOORD_0":2,
						"TEXCOORD_1":3,
						"TEXCOORD_2":4,
						"TANGENT":5
					},
					"indices":6,
					"material":0
				}
			]
		},
		{
			"name":"Cube.001",
			"primitives":[
				{
					"attributes":{
						"POSITION":7,
						"NORMAL":8,
						"TEXCOORD_0":9,
						"TANGENT":10
					},
					"indices":11,
					"material":1
				}
			]
		}
	],
	"textures":[
		{
			"sampler":0,
			"source":0
		},
		{
			"sampler":0,
			"source":1
		},
		{
			"sampler":0,
			"source":2
		},
		{
			"sampler":0,
			"source":3
		}
	],
	"images":[
		{
			"mimeType":"image/png",
			"name":"inside_emissive",
			"uri":"textures/inside_emissive.png"
		},
		{
			"mimeType":"image/png",
			"name":"inside_normal",
			"uri":"textures/inside_normal.png"
		},
		{
			"mimeType":"image/png",
			"name":"inside_metallicRoughness",
			"uri":"textures/inside_metallicRoughness.png"
		},
		{
			"mimeType":"image/png",
			"name":"inside_baseColor",
			"uri":"textures/inside_baseColor.png"
		}
	],
	"accessors":[
		{
			"bufferView":0,
			"componentType":5126,
			"count":18787,
			"max":[
				0.8736203908920288,
				0.8909692764282227,
				1.8114356994628906
			],
			"min":[
				-0.8736203908920288,
				-0.9120743870735168,
				-3.424422345688072e-08
			],
			"type":"VEC3"
		},
		{
			"bufferView":1,
			"componentType":5126,
			"count":18787,
			"type":"VEC3"
		},
		{
			"bufferView":2,
			"componentType":5126,
			"count":18787,
			"type":"VEC2"
		},
		{
			"bufferView":3,
			"componentType":5126,
			"count":18787,
			"type":"VEC2"
		},
		{
			"bufferView":4,
			"componentType":5126,
			"count":18787,
			"type":"VEC2"
		},
		{
			"bufferView":5,
			"componentType":5126,
			"count":18787,
			"type":"VEC4"
		},
		{
			"bufferView":6,
			"componentType":5123,
			"count":70383,
			"type":"SCALAR"
		},
		{
			"bufferView":7,
			"componentType":5126,
			"count":24,
			"max":[
				1,
				1,
				1
			],
			"min":[
				-1,
				-1,
				-1
			],
			"type":"VEC3"
		},
		{
			"bufferView":8,
			"componentType":5126,
			"count":24,
			"type":"VEC3"
		},
		{
			"bufferView":9,
			"componentType":5126,
			"count":24,
			"type":"VEC2"
		},
		{
			"bufferView":10,
			"componentType":5126,
			"count":24,
			"type":"VEC4"
		},
		{
			"bufferView":11,
			"componentType":5123,
			"count":36,
			"type":"SCALAR"
		}
	],
	"bufferViews":[
		{
			"buffer":0,
			"byteLength":225444,
			"byteOffset":0,
			"target":34962
		},
		{
			"buffer":0,
			"byteLength":225444,
			"byteOffset":225444,
			"target":34962
		},
		{
			"buffer":0,
			"byteLength":150296,
			"byteOffset":450888,
			"target":34962
		},
		{
			"buffer":0,
			"byteLength":150296,
			"byteOffset":601184,
			"target":34962
		},
		{
			"buffer":0,
			"byteLength":150296,
			"byteOffset":751480,
			"target":34962
		},
		{
			"buffer":0,
			"byteLength":300592,
			"byteOffset":901776,
			"target":34962
		},
		{
			"buffer":0,
			"byteLength":140766,
			"byteOffset":1202368,
			"target":34963
		},
		{
			"buffer":0,
			"byteLength":288,
			"byteOffset":1343136,
			"target":34962
		},
		{
			"buffer":0,
			"byteLength":288,
			"byteOffset":1343424,
			"target":34962
		},
		{
			"buffer":0,
			"byteLength":192,
			"byteOffset":1343712,
			"target":34962
		},
		{
			"buffer":0,
			"byteLength":384,
			"byteOffset":1343904,
			"target":34962
		},
		{
			"buffer":0,
			"byteLength":72,
			"byteOffset":1344288,
			"target":34963
		}
	],
	"samplers":[
		{
			"magFilter":9729,
			"minFilter":9987
		}
	],
	"buffers":[
		{
			"byteLength":1344360,
			"uri":"scene.bin"
		}
	]
}
