{
	"asset":{
		"generator":"Khronos glTF Blender I/O v4.3.47",
		"version":"2.0"
	},
	"scene":0,
	"scenes":[
		{
			"name":"Scene",
			"nodes":[
				4,
				9
			]
		}
	],
	"nodes":[
		{
			"mesh":0,
			"name":"Knife_Knife_0"
		},
		{
			"children":[
				0
			],
			"name":"Knife",
			"rotation":[
				-0.70710688829422,
				0,
				0,
				0.7071066498756409
			],
			"translation":[
				0,
				1.0417245626449585,
				0
			]
		},
		{
			"children":[
				1
			],
			"name":"RootNode"
		},
		{
			"children":[
				2
			],
			"name":"Knife.fbx",
			"rotation":[
				0.70710688829422,
				0,
				0,
				0.7071066498756409
			],
			"scale":[
				0.009999999776482582,
				0.010000000707805157,
				0.010000000707805157
			]
		},
		{
			"children":[
				3
			],
			"name":"Sketchfab_model",
			"rotation":[
				-0.70710688829422,
				0,
				0,
				0.7071066498756409
			]
		},
		{
			"mesh":1,
			"name":"LightFixture_LightFixture_0"
		},
		{
			"children":[
				5
			],
			"name":"LightFixture",
			"rotation":[
				-0.70710688829422,
				0,
				0,
				0.7071066498756409
			],
			"scale":[
				100.00000762939453,
				99.99999237060547,
				99.99999237060547
			]
		},
		{
			"children":[
				6
			],
			"name":"RootNode.001"
		},
		{
			"children":[
				7
			],
			"name":"659636cdb9ca4ba9918d68a780937315.fbx",
			"rotation":[
				0.70710688829422,
				0,
				0,
				0.7071066498756409
			]
		},
		{
			"children":[
				8
			],
			"name":"Sketchfab_model.001",
			"rotation":[
				-0.70710688829422,
				0,
				0,
				0.7071066498756409
			],
			"scale":[
				0.01613796316087246,
				0.01613796502351761,
				0.01613796502351761
			],
			"translation":[
				0,
				0.23999999463558197,
				0
			]
		}
	],
	"materials":[
		{
			"doubleSided":true,
			"name":"Knife",
			"normalTexture":{
				"index":0
			},
			"occlusionTexture":{
				"index":1
			},
			"pbrMetallicRoughness":{
				"baseColorTexture":{
					"index":2
				},
				"metallicRoughnessTexture":{
					"index":1
				}
			}
		},
		{
			"doubleSided":true,
			"emissiveFactor":[
				0.699999988079071,
				0.699999988079071,
				0.699999988079071
			],
			"emissiveTexture":{
				"index":3
			},
			"name":"LightFixture",
			"pbrMetallicRoughness":{
				"baseColorTexture":{
					"index":4
				},
				"metallicFactor":0.5,
				"metallicRoughnessTexture":{
					"index":5
				},
				"roughnessFactor":0.8999999761581421
			}
		}
	],
	"meshes":[
		{
			"name":"Knife_Knife_0",
			"primitives":[
				{
					"attributes":{
						"POSITION":0,
						"NORMAL":1,
						"TEXCOORD_0":2,
						"TEXCOORD_1":3,
						"TEXCOORD_2":4,
						"TEXCOORD_3":5,
						"TEXCOORD_4":6,
						"TANGENT":7
					},
					"indices":8,
					"material":0
				}
			]
		},
		{
			"name":"LightFixture_LightFixture_0",
			"primitives":[
				{
					"attributes":{
						"POSITION":9,
						"NORMAL":10,
						"TEXCOORD_0":11,
						"TEXCOORD_1":12,
						"TANGENT":13
					},
					"indices":14,
					"material":1
				}
			]
		}
	],
	"textures":[
		{
			"sampler":0,
			"source":0
		},
		{
			"sampler":0,
			"source":1
		},
		{
			"sampler":0,
			"source":2
		},
		{
			"sampler":0,
			"source":3
		},
		{
			"sampler":0,
			"source":4
		},
		{
			"sampler":0,
			"source":5
		}
	],
	"images":[
		{
			"mimeType":"image/png",
			"name":"Knife_normal",
			"uri":"textures/Knife_normal.png"
		},
		{
			"mimeType":"image/png",
			"name":"Knife_metallicRoughness",
			"uri":"textures/Knife_metallicRoughness.png"
		},
		{
			"mimeType":"image/png",
			"name":"Knife_baseColor",
			"uri":"textures/Knife_baseColor.png"
		},
		{
			"mimeType":"image/png",
			"name":"LightFixture_emissive",
			"uri":"textures/LightFixture_emissive.png"
		},
		{
			"mimeType":"image/png",
			"name":"LightFixture_baseColor",
			"uri":"textures/LightFixture_baseColor.png"
		},
		{
			"mimeType":"image/png",
			"name":"LightFixture_metallicRoughness",
			"uri":"textures/LightFixture_metallicRoughness.png"
		}
	],
	"accessors":[
		{
			"bufferView":0,
			"componentType":5126,
			"count":257,
			"max":[
				3.787470817565918,
				29.387649536132812,
				1.0081613063812256
			],
			"min":[
				-3.7874741554260254,
				-29.387643814086914,
				-1.0081602334976196
			],
			"type":"VEC3"
		},
		{
			"bufferView":1,
			"componentType":5126,
			"count":257,
			"type":"VEC3"
		},
		{
			"bufferView":2,
			"componentType":5126,
			"count":257,
			"type":"VEC2"
		},
		{
			"bufferView":3,
			"componentType":5126,
			"count":257,
			"type":"VEC2"
		},
		{
			"bufferView":4,
			"componentType":5126,
			"count":257,
			"type":"VEC2"
		},
		{
			"bufferView":5,
			"componentType":5126,
			"count":257,
			"type":"VEC2"
		},
		{
			"bufferView":6,
			"componentType":5126,
			"count":257,
			"type":"VEC2"
		},
		{
			"bufferView":7,
			"componentType":5126,
			"count":257,
			"type":"VEC4"
		},
		{
			"bufferView":8,
			"componentType":5123,
			"count":834,
			"type":"SCALAR"
		},
		{
			"bufferView":9,
			"componentType":5126,
			"count":892,
			"max":[
				0.07600872218608856,
				0.0877673327922821,
				0.5267168283462524
			],
			"min":[
				-0.07600872963666916,
				-0.0877673327922821,
				-0.00362504948861897
			],
			"type":"VEC3"
		},
		{
			"bufferView":10,
			"componentType":5126,
			"count":892,
			"type":"VEC3"
		},
		{
			"bufferView":11,
			"componentType":5126,
			"count":892,
			"type":"VEC2"
		},
		{
			"bufferView":12,
			"componentType":5126,
			"count":892,
			"type":"VEC2"
		},
		{
			"bufferView":13,
			"componentType":5126,
			"count":892,
			"type":"VEC4"
		},
		{
			"bufferView":14,
			"componentType":5123,
			"count":1308,
			"type":"SCALAR"
		}
	],
	"bufferViews":[
		{
			"buffer":0,
			"byteLength":3084,
			"byteOffset":0,
			"target":34962
		},
		{
			"buffer":0,
			"byteLength":3084,
			"byteOffset":3084,
			"target":34962
		},
		{
			"buffer":0,
			"byteLength":2056,
			"byteOffset":6168,
			"target":34962
		},
		{
			"buffer":0,
			"byteLength":2056,
			"byteOffset":8224,
			"target":34962
		},
		{
			"buffer":0,
			"byteLength":2056,
			"byteOffset":10280,
			"target":34962
		},
		{
			"buffer":0,
			"byteLength":2056,
			"byteOffset":12336,
			"target":34962
		},
		{
			"buffer":0,
			"byteLength":2056,
			"byteOffset":14392,
			"target":34962
		},
		{
			"buffer":0,
			"byteLength":4112,
			"byteOffset":16448,
			"target":34962
		},
		{
			"buffer":0,
			"byteLength":1668,
			"byteOffset":20560,
			"target":34963
		},
		{
			"buffer":0,
			"byteLength":10704,
			"byteOffset":22228,
			"target":34962
		},
		{
			"buffer":0,
			"byteLength":10704,
			"byteOffset":32932,
			"target":34962
		},
		{
			"buffer":0,
			"byteLength":7136,
			"byteOffset":43636,
			"target":34962
		},
		{
			"buffer":0,
			"byteLength":7136,
			"byteOffset":50772,
			"target":34962
		},
		{
			"buffer":0,
			"byteLength":14272,
			"byteOffset":57908,
			"target":34962
		},
		{
			"buffer":0,
			"byteLength":2616,
			"byteOffset":72180,
			"target":34963
		}
	],
	"samplers":[
		{
			"magFilter":9729,
			"minFilter":9987
		}
	],
	"buffers":[
		{
			"byteLength":74796,
			"uri":"scene.bin"
		}
	]
}
